<?xml version="1.0" encoding="utf-8"?>
<!-- Generator: Adobe Illustrator 18.1.1, SVG Export Plug-In . SVG Version: 6.00 Build 0)  -->
<svg version="1.1" id="Layer_1" xmlns="http://www.w3.org/2000/svg" xmlns:xlink="http://www.w3.org/1999/xlink" x="0px" y="0px"
	 viewBox="0 0 66 66" enable-background="new 0 0 66 66" xml:space="preserve">
<g>
	<path fill="#FFFFFF" d="M65,33c0,17.7-14.3,32-32,32C15.3,65,1,50.7,1,33S15.3,1,33,1C50.7,1,65,15.3,65,33"/>
	<g>
		<path fill="#BD081C" d="M33,4.6C17.3,4.6,4.5,17.3,4.5,33c0,12.1,7.5,22.3,18.1,26.5c-0.2-2.3-0.5-5.7,0.1-8.2
			c0.5-2.2,3.3-14.1,3.3-14.1s-0.9-1.7-0.9-4.2c0-4,2.3-6.9,5.1-6.9c2.4,0,3.6,1.8,3.6,4c0,2.4-1.6,6.1-2.4,9.5
			c-0.7,2.8,1.4,5.1,4.2,5.1c5.1,0,8.9-5.3,8.9-13c0-6.8-4.9-11.6-11.9-11.6c-8.1,0-12.8,6.1-12.8,12.3c0,2.4,0.9,5.1,2.1,6.5
			c0.2,0.3,0.3,0.5,0.2,0.8c-0.2,0.9-0.7,2.8-0.8,3.2c-0.1,0.5-0.4,0.6-1,0.4c-3.6-1.7-5.8-6.8-5.8-11c0-9,6.5-17.2,18.8-17.2
			c9.9,0,17.5,7,17.5,16.4c0,9.8-6.2,17.7-14.8,17.7c-2.9,0-5.6-1.5-6.5-3.3c0,0-1.4,5.4-1.8,6.8c-0.6,2.5-2.4,5.6-3.5,7.5
			c2.7,0.8,5.5,1.3,8.4,1.3c15.7,0,28.4-12.7,28.4-28.4C61.4,17.3,48.7,4.6,33,4.6z"/>
	</g>
</g>
</svg>
