<?xml version="1.0" encoding="utf-8"?>
<!-- Generator: Adobe Illustrator 18.1.1, SVG Export Plug-In . SVG Version: 6.00 Build 0)  -->
<svg version="1.1" id="Layer_1" xmlns="http://www.w3.org/2000/svg" xmlns:xlink="http://www.w3.org/1999/xlink" x="0px" y="0px"
	 viewBox="0 0 66 66" enable-background="new 0 0 66 66" xml:space="preserve">
<g>
	<circle fill="#FFFFFF" cx="31.5" cy="33" r="27"/>
	<path fill="#59DDEF" d="M33,1C15.3,1,1,15.3,1,33c0,17.7,14.3,32,32,32c17.7,0,32-14.3,32-32C65,15.3,50.7,1,33,1z M45.7,26.5
		c0,0.3,0,0.6,0,0.8C45.7,36,39.1,46,27.1,46c-3.7,0-7.2-1.1-10.1-2.9c0.5,0.1,1,0.1,1.6,0.1c3.1,0,5.9-1,8.2-2.8
		c-2.9-0.1-5.3-2-6.1-4.6c0.4,0.1,0.8,0.1,1.2,0.1c0.6,0,1.2-0.1,1.7-0.2c-3-0.6-5.3-3.3-5.3-6.4c0,0,0-0.1,0-0.1
		c0.9,0.5,1.9,0.8,3,0.8c-1.8-1.2-2.9-3.2-2.9-5.5c0-1.2,0.3-2.3,0.9-3.3c3.2,4,8.1,6.6,13.5,6.9c-0.1-0.5-0.2-1-0.2-1.5
		c0-3.6,2.9-6.6,6.6-6.6c1.9,0,3.6,0.8,4.8,2.1c1.5-0.3,2.9-0.8,4.2-1.6c-0.5,1.5-1.5,2.8-2.9,3.6c1.3-0.2,2.6-0.5,3.8-1
		C48.1,24.4,47,25.6,45.7,26.5z"/>
</g>
</svg>
