<?xml version="1.0" encoding="utf-8"?>
<!-- Generator: Adobe Illustrator 18.1.1, SVG Export Plug-In . SVG Version: 6.00 Build 0)  -->
<svg version="1.1" id="Layer_1" xmlns="http://www.w3.org/2000/svg" xmlns:xlink="http://www.w3.org/1999/xlink" x="0px" y="0px"
	 viewBox="0 0 66 66" enable-background="new 0 0 66 66" xml:space="preserve">
<g>
	<circle fill="#FFFFFF" cx="33.9" cy="34.9" r="27"/>
	<path fill="#3C5A98" d="M33,1C15.3,1,1,15.3,1,33c0,17.7,14.3,32,32,32c17.7,0,32-14.3,32-32C65,15.3,50.7,1,33,1z M39.9,33h-4.5
		c0,7.2,0,16,0,16h-6.6c0,0,0-8.7,0-16h-3.2v-5.6h3.2v-3.7c0-2.6,1.2-6.7,6.7-6.7l4.9,0v5.5c0,0-3,0-3.6,0c-0.6,0-1.4,0.3-1.4,1.5
		v3.3h5.1L39.9,33z"/>
</g>
</svg>
