<?xml version="1.0" encoding="utf-8"?>
<!-- Generator: Adobe Illustrator 18.1.1, SVG Export Plug-In . SVG Version: 6.00 Build 0)  -->
<svg version="1.1" id="Layer_1" xmlns="http://www.w3.org/2000/svg" xmlns:xlink="http://www.w3.org/1999/xlink" x="0px" y="0px"
	 viewBox="0 0 66 66" enable-background="new 0 0 66 66" xml:space="preserve">
<g>
	<circle fill="#FFFFFF" cx="33.7" cy="33.5" r="27"/>
	<g>
		<path fill="#EE3B26" d="M26.5,18.5c-2.5-0.1-4.2,2.5-3.8,5.8c0.4,3.3,2.9,5.7,5.4,5.8c2.5,0.1,4-2.1,3.6-5.4
			C31.2,21.4,29,18.6,26.5,18.5z"/>
		<path fill="#EE3B26" d="M27.6,36.9c-3.8,0-7,2.4-7,5.2c0,2.9,2.7,5.3,6.5,5.3c5.3,0,7.2-2.2,7.2-5.1c0-0.3,0-0.7-0.1-1
			c-0.4-1.6-2.1-2.5-4.1-4C29.3,37.1,28.5,36.9,27.6,36.9z"/>
		<path fill="#EE3B26" d="M33,1C15.3,1,1,15.3,1,33c0,17.7,14.3,32,32,32c17.7,0,32-14.3,32-32C65,15.3,50.7,1,33,1z M35.4,24.5
			c0,2.1-1.2,3.8-2.8,5c-1.6,1.2-1.9,1.8-1.9,2.8c0,0.9,1.9,2.2,2.8,2.9c3,2.3,3.7,3.7,3.7,6.6c0,3.6-3.8,7.1-10.1,7.1
			C21.6,49,17,46.8,17,43.2c0-3.6,3.8-7.4,9.3-7.4c0.6,0,1.1,0,1.7,0c-0.8-0.7-1.4-1.4-1.4-2.5c0-0.7,0.2-1.3,0.5-1.8
			c-0.3,0-0.6,0-0.9,0c-4.5,0-7.1-3.2-7.1-7.1c0-3.9,4-7.4,8.8-7.4c2.5,0,9.4,0,9.4,0l-2.1,2.2h-2.5C34.5,20.2,35.4,22.3,35.4,24.5z
			 M49,24h-4.4v4.3h-2.2V24h-4.3v-2.2h4.3v-4.4h2.2v4.4H49V24z"/>
	</g>
</g>
</svg>
