<?xml version="1.0" encoding="UTF-8" standalone="no"?>
<!-- Created with Inkscape (http://www.inkscape.org/) -->

<svg
   xmlns:dc="http://purl.org/dc/elements/1.1/"
   xmlns:cc="http://creativecommons.org/ns#"
   xmlns:rdf="http://www.w3.org/1999/02/22-rdf-syntax-ns#"
   xmlns:svg="http://www.w3.org/2000/svg"
   xmlns="http://www.w3.org/2000/svg"
   xmlns:sodipodi="http://sodipodi.sourceforge.net/DTD/sodipodi-0.dtd"
   xmlns:inkscape="http://www.inkscape.org/namespaces/inkscape"
   version="1.1"
   width="100%"
   height="100%"
   viewBox="0 0 817 206.6"
   id="Layer_1"
   xml:space="preserve"
   inkscape:version="0.48.4 r9939"
   sodipodi:docname="versal-logo-2.svg"><sodipodi:namedview
     pagecolor="#ffffff"
     bordercolor="#666666"
     borderopacity="1"
     objecttolerance="10"
     gridtolerance="10"
     guidetolerance="10"
     inkscape:pageopacity="0"
     inkscape:pageshadow="2"
     inkscape:window-width="1366"
     inkscape:window-height="711"
     id="namedview28"
     showgrid="false"
     fit-margin-top="0"
     fit-margin-left="0"
     fit-margin-right="0"
     fit-margin-bottom="0"
     inkscape:zoom="0.72061069"
     inkscape:cx="474.56065"
     inkscape:cy="100.14854"
     inkscape:window-x="-3"
     inkscape:window-y="-3"
     inkscape:window-maximized="1"
     inkscape:current-layer="Layer_1" /><metadata
     id="metadata53"><rdf:RDF><cc:Work
         rdf:about=""><dc:format>image/svg+xml</dc:format><dc:type
           rdf:resource="http://purl.org/dc/dcmitype/StillImage" /><dc:title /></cc:Work></rdf:RDF></metadata><defs
     id="defs51" /><g
     id="g3"
     transform="translate(0.3,-224.1)"><path
       d="m 116,225.5 h 2.2 l 2.2,0.1 1.8,0.3 2.4,0.7 6.3,3 10.1,6.5 c 0,0 3.1,5.8 3.5,6.3 0.4,0.5 0.5,4.6 0.5,4.6 l -1.3,1.4 -7.4,-1.1 -18.4,-12 -1.9,-9.8 z"
       id="path5"
       style="fill:#edd26b"
       inkscape:connector-curvature="0" /><polygon
       points="22.3,292.9 28.2,303.4 27,305.4 20.7,298.3 15.8,279.5 16.2,274.1 16.9,271.3 18.1,270.9 17.4,278.4 18.6,285 "
       id="polygon7"
       style="fill:#edd26b" /><polygon
       points="8,327.9 11.6,327.1 23.2,345 3.7,352.3 2.9,339.7 "
       id="polygon9"
       style="fill:#4d6335" /><polyline
       points="10.9,359.4 9.6,364.5 13.1,361.9 20.7,329.5 27.7,306.4 26.4,303.8 10,313.9  "
       id="polyline11"
       style="fill:#4d6335" /><polygon
       points="108.1,421 127,374.5 125.8,374.1 94.4,408.2 59.8,421.1 "
       id="polygon13"
       style="fill:#51777b" /><polygon
       points="193.4,370.4 197.1,368.5 194,376.3 174.5,387 126,374.9 128.3,371.1 "
       id="polygon15"
       style="fill:#d03e28" /><polygon
       points="156.2,242.5 143.4,247.7 144.5,250.1 179.5,259.2 174.7,253.8 "
       id="polygon17"
       style="fill:#d03e28" /><polygon
       points="65.3,422.7 61.6,410.4 77.5,415.3 81.1,427.6 "
       id="polygon19"
       style="fill:#51777b" /><g
       id="g21"><g
         id="g23"><path
           d="m 361.8,290.9 c 0.3,1.3 0.4,2.3 0.4,3 0,1 -0.2,1.6 -0.7,1.9 -0.5,0.3 -1.2,0.6 -2.1,0.9 -3.2,0.9 -5.8,2.6 -7.8,5.1 -2,2.5 -3.9,6 -5.8,10.4 l -36.9,86.9 c -1.6,0 -3.3,-0.3 -5.2,-0.8 -1.9,-0.5 -3.1,-1.3 -3.6,-2.3 l -39,-85 c -1.1,-2.4 -2.2,-4.4 -3.2,-6 -1,-1.6 -2,-2.8 -3.1,-3.9 -1.1,-1 -2.3,-1.9 -3.7,-2.5 -1.4,-0.6 -3,-1.2 -4.9,-1.7 -1.5,-0.4 -2.2,-1.4 -2.2,-3 0,-1 0.3,-2 0.8,-3.2 h 44.3 c 0.2,0.7 0.3,1.3 0.5,1.7 0.1,0.4 0.2,0.9 0.2,1.3 0,1.6 -0.8,2.6 -2.3,2.8 -2.5,0.5 -4.5,1.2 -6.1,2.1 -1.6,0.9 -2.3,2.2 -2.3,4.1 0,1 0.3,2.4 1,4.3 l 28.4,66.1 25.5,-59.8 c 1.6,-3.7 2.3,-6.7 2.3,-8.9 0,-2 -0.8,-3.6 -2.3,-4.7 -1.5,-1.2 -4,-2.2 -7.4,-3.2 -1.4,-0.3 -2.1,-1.4 -2.1,-3.1 0,-0.6 0.1,-1.5 0.4,-2.7 h 36.9 z"
           id="path25"
           style="fill:#6e6b60"
           inkscape:connector-curvature="0" /><path
           d="m 415.4,400.4 c -8.5,0 -15.8,-1.5 -22.1,-4.4 -6.3,-2.9 -11.5,-6.8 -15.7,-11.5 -4.2,-4.7 -7.4,-10.1 -9.4,-16.2 -2.1,-6 -3.1,-12.2 -3.1,-18.4 0,-9.1 1.5,-17.4 4.5,-24.9 3,-7.5 6.8,-13.8 11.5,-19.1 4.7,-5.3 10,-9.3 15.9,-12.2 5.9,-2.9 11.8,-4.3 17.7,-4.3 11.8,0 20.9,3.2 27.2,9.6 6.3,6.4 9.5,15.7 9.7,28.1 0,1.8 -0.1,3.7 -0.2,5.6 -0.1,1.9 -0.4,3.9 -0.7,5.9 h -68.8 c 0,3.3 0.2,6.7 0.6,10.1 0.4,3.5 1.1,6.9 2.2,10.2 1.1,3.3 2.6,6.4 4.5,9.4 1.9,2.9 4.5,5.5 7.6,7.7 3.1,2.2 6.9,3.9 11.3,5.2 4.4,1.3 9.7,1.9 15.9,1.9 3.7,0 7.9,-0.3 12.4,-0.8 4.6,-0.6 8.7,-1.4 12.4,-2.4 l 0.3,0.5 c -2.1,4.6 -4.6,8.2 -7.6,10.8 -3,2.6 -6,4.6 -9.2,6 -3.2,1.3 -6.2,2.2 -9.3,2.5 -3,0.5 -5.5,0.7 -7.6,0.7 m 18.5,-73.2 c 0,-2.2 -0.3,-4.7 -0.8,-7.8 -0.6,-3 -1.7,-5.9 -3.3,-8.7 -1.6,-2.8 -4,-5.2 -7.1,-7.2 -3.1,-2 -7.2,-3 -12.2,-3 -2.9,0 -5.8,0.4 -8.7,1.2 -2.9,0.8 -5,1.7 -6.5,2.8 -1.9,1.3 -3.6,3 -5,5 -1.5,2.1 -2.7,4.2 -3.8,6.5 -1,2.3 -1.8,4.6 -2.4,6.8 -0.6,2.2 -0.9,4.2 -1,6 l 50.8,-1.6 z"
           id="path27"
           style="fill:#6e6b60"
           inkscape:connector-curvature="0" /><path
           d="m 487.2,310.9 c 0,-1.4 -0.1,-2.7 -0.3,-4 -0.2,-1.3 -0.5,-2.2 -1,-2.6 -0.7,-0.7 -2.3,-1.2 -4.9,-1.7 -2.6,-0.4 -6.3,-0.9 -11.3,-1.3 -0.1,-0.4 -0.2,-0.8 -0.2,-1.2 0,-0.3 -0.1,-0.7 -0.1,-1 0,-1.4 0.4,-2.2 1.2,-2.5 7.3,-2.1 13.1,-3.7 17.4,-4.9 4.2,-1.2 7.4,-2 9.5,-2.6 2.1,-0.6 3.4,-0.9 3.9,-1 0.5,-0.1 0.8,-0.1 0.9,-0.1 0.9,0 1.6,0.4 2,1.3 0.4,0.9 0.6,1.8 0.6,2.7 v 13.3 c 1.8,-1.6 3.9,-3.4 6.3,-5.4 2.4,-1.9 5,-3.7 7.8,-5.4 2.8,-1.6 5.6,-3 8.5,-4.1 2.9,-1.1 5.9,-1.6 8.8,-1.6 5.4,0 9.4,0.9 11.8,2.7 2.5,1.8 3.7,4.3 3.7,7.7 0,1.4 -0.2,3.1 -0.7,5 -0.4,2 -1.2,4.1 -2.5,6.2 -3.5,-1.6 -6.8,-2.7 -9.6,-3.5 -2.9,-0.8 -6.2,-1.2 -10,-1.2 -3.9,0 -8,0.4 -12.2,1.1 -4.3,0.7 -8.3,1.6 -12,2.5 v 67.1 c 0,2.7 0.2,4.8 0.6,6.3 0.4,1.6 1.2,2.8 2.6,3.8 1.3,0.9 3.3,1.7 5.8,2.3 2.5,0.6 5.9,1.3 10.1,2.1 0.9,0.2 1.6,0.6 1.8,1.3 0.3,0.7 0.4,1.4 0.4,2.2 0,0.4 -0.1,1.1 -0.3,1.9 -0.1,0.3 -0.1,0.5 -0.1,0.8 h -56.3 c -0.1,-0.3 -0.1,-0.7 -0.1,-1 v -0.8 c 0,-1.5 0.2,-2.5 0.7,-3.2 0.4,-0.7 0.9,-1.1 1.4,-1.2 3.7,-0.6 6.6,-1.3 8.8,-2.1 2.2,-0.8 3.8,-1.8 4.8,-3.2 1,-1.3 1.7,-3 1.9,-5.1 0.3,-2.1 0.4,-4.7 0.4,-7.8 l -0.1,-61.8 0,0 z"
           id="path29"
           style="fill:#6e6b60"
           inkscape:connector-curvature="0" /><path
           d="m 623.4,291.7 c 1.7,0.8 3.1,1.9 4.1,3.5 1,1.5 1.6,3.4 1.6,5.6 0,1.3 -0.2,3 -0.7,5.1 -0.4,2.1 -1.6,4.2 -3.4,6.3 -3.3,-3 -7.2,-5.4 -11.7,-7.2 -4.5,-1.8 -9.3,-2.6 -14.3,-2.6 -5.7,0 -10.2,0.8 -13.4,2.5 -3.2,1.6 -4.9,4.7 -4.9,9.1 0,3.4 1.3,6.3 3.8,8.8 2.5,2.5 5.8,4.8 9.6,7 3.9,2.2 8,4.4 12.5,6.6 4.4,2.2 8.6,4.7 12.5,7.4 3.9,2.7 7.1,5.9 9.7,9.5 2.5,3.6 3.8,8 3.8,13.1 0,4.4 -0.5,8.1 -1.6,11.2 -1,3.1 -1.9,5.1 -2.5,6.1 -2.1,3.5 -4.3,6.3 -6.8,8.6 -2.5,2.3 -5.1,4.1 -7.8,5.4 -2.8,1.3 -5.7,2.3 -8.7,2.9 -3.1,0.6 -6.2,0.8 -9.4,0.8 -2.1,0 -4.2,-0.1 -6.5,-0.4 -2.2,-0.3 -4.5,-0.7 -6.7,-1.2 -2.2,-0.6 -4.3,-1.2 -6.3,-2 -2,-0.8 -3.9,-1.7 -5.5,-2.7 -2.6,-1.6 -4.4,-3.5 -5.4,-5.6 -1,-2.1 -1.5,-4 -1.5,-5.8 0,-1.6 0.2,-3.2 0.7,-4.8 0.5,-1.6 1.1,-2.9 1.8,-4.1 0.9,-1.6 1.7,-2.9 2.6,-4 5.9,6 11.5,10.6 16.8,13.6 5.3,3 10.9,4.5 16.9,4.5 5.2,0 9.4,-1.2 12.6,-3.6 3.2,-2.4 4.9,-6 4.9,-10.6 0,-3.5 -1.3,-6.6 -3.9,-9.3 -2.6,-2.6 -5.8,-5.1 -9.7,-7.3 -3.9,-2.2 -8.1,-4.5 -12.6,-6.7 -4.5,-2.2 -8.7,-4.7 -12.6,-7.5 -3.9,-2.8 -7.1,-6 -9.7,-9.7 -2.6,-3.7 -3.9,-8.1 -3.9,-13.3 0,-5.1 1.2,-9.6 3.6,-13.7 2.4,-4 5.5,-7.4 9.3,-10.1 3.8,-2.7 8.1,-4.8 12.9,-6.2 4.8,-1.4 9.6,-2.1 14.4,-2.1 5.7,-0.1 10.8,0.9 15.4,2.9"
           id="path31"
           style="fill:#6e6b60"
           inkscape:connector-curvature="0" /><path
           d="m 723.3,400.4 c -2.9,0 -5.3,-0.4 -7.2,-1.3 -1.9,-0.9 -3.3,-2.1 -4.3,-3.6 -1,-1.5 -1.7,-3.4 -2.1,-5.6 -0.4,-2.2 -0.6,-4.5 -0.6,-7.1 -1.9,3.4 -4.2,6.3 -7,8.7 -2.4,2.2 -5.4,4.1 -9.1,5.9 -3.6,1.8 -7.9,2.7 -12.8,2.7 -4.6,0 -8.7,-0.6 -12.3,-1.7 -3.6,-1.2 -6.7,-2.8 -9.3,-5 -2.6,-2.2 -4.6,-4.7 -6,-7.8 -1.4,-3 -2.1,-6.4 -2.1,-10.2 0,-5.6 1.5,-10.7 4.5,-15.3 3,-4.6 7.1,-8.5 12.3,-11.6 5.2,-3.2 11.4,-5.6 18.4,-7.4 7.1,-1.7 14.7,-2.6 22.9,-2.6 v -18.2 c 0,-6.5 -1.9,-11.3 -5.6,-14.4 -3.7,-3.1 -8.9,-4.7 -15.7,-4.7 -5.8,0 -10,1.1 -12.5,3.4 -2.5,2.2 -3.8,5.4 -3.8,9.6 0,0.6 0,1.4 0.1,2.4 0,1 0.1,1.8 0.3,2.5 l -1.4,0.3 c -0.4,0.1 -0.9,0.1 -1.4,0.1 H 667 c -0.7,0 -1.7,-0.1 -3,-0.3 -1.3,-0.2 -2.7,-0.5 -4.1,-1.1 -1.4,-0.6 -2.6,-1.4 -3.6,-2.5 -1,-1.1 -1.5,-2.7 -1.5,-4.7 0,-2.9 1.5,-5.6 4.5,-8.2 3,-2.6 6.7,-4.9 11.1,-6.9 4.4,-2 9.1,-3.6 14.1,-4.8 5,-1.2 9.5,-1.8 13.5,-1.8 5.3,0 9.7,0.9 13.3,2.7 3.6,1.8 6.5,4.1 8.7,7 2.2,2.9 3.8,6.1 4.7,9.7 0.9,3.6 1.4,7.2 1.4,10.8 v 55.1 c 0,4.6 0.7,7.9 2.1,9.6 1.4,1.8 3.6,2.7 6.7,2.7 1.6,0 3.4,-0.2 5.3,-0.5 1.9,-0.3 3.3,-0.8 4.3,-1.3 l 0.3,0.5 c -0.4,1.5 -1.2,3.1 -2.2,4.8 -1,1.7 -2.4,3.3 -4.1,4.9 -1.7,1.5 -3.8,2.8 -6.3,3.8 -2.6,0.9 -5.5,1.4 -8.9,1.4 M 708.7,351 c -0.9,-0.1 -2,-0.1 -3,-0.2 -1.1,0 -2.2,-0.1 -3.4,-0.1 -2.9,0 -6,0.2 -9.1,0.5 -3.2,0.3 -6.2,0.7 -9.1,1.3 -2.9,0.6 -5.5,1.3 -7.8,2.2 -2.3,0.9 -4.1,2 -5.4,3.3 -1.2,1.1 -2.2,2.6 -3,4.6 -0.8,1.9 -1.2,4 -1.2,6 0,2.2 0.4,4.2 1.2,6.2 0.8,2 2.1,3.7 3.9,5.2 1.8,1.5 4.2,2.7 7.1,3.6 2.9,0.9 6.5,1.4 10.7,1.4 3.3,0 6.6,-0.4 10,-1.2 3.4,-0.8 6.4,-2 9.2,-3.6 l -0.1,-29.2 0,0 z"
           id="path33"
           style="fill:#6e6b60"
           inkscape:connector-curvature="0" /><path
           d="m 778.3,246.9 c 0,-1.4 -0.1,-2.7 -0.3,-4 -0.2,-1.3 -0.5,-2.2 -1,-2.6 -0.7,-0.7 -2.3,-1.3 -4.9,-1.7 -2.6,-0.4 -6.3,-0.9 -11.3,-1.3 -0.1,-0.4 -0.2,-0.8 -0.2,-1.2 0,-0.3 -0.1,-0.7 -0.1,-1 0,-1.4 0.4,-2.2 1.2,-2.5 7.6,-2.1 13.5,-3.7 17.7,-4.8 4.2,-1.2 7.3,-2 9.3,-2.5 2,-0.5 3.2,-0.8 3.6,-1 0.4,-0.1 0.6,-0.2 0.7,-0.2 0.9,0 1.6,0.4 2,1.3 0.4,0.9 0.6,1.8 0.6,2.7 v 148.5 c 0,2.7 0.2,4.8 0.6,6.3 0.4,1.6 1.2,2.8 2.5,3.8 1.3,0.9 3.2,1.7 5.7,2.3 2.5,0.6 5.9,1.3 10.1,2.1 0.9,0.2 1.6,0.6 1.8,1.3 0.3,0.7 0.4,1.4 0.4,2.2 0,0.4 -0.1,1.1 -0.3,1.9 -0.1,0.3 -0.1,0.5 -0.1,0.8 h -55.9 c -0.1,-0.3 -0.1,-0.7 -0.1,-1 v -0.8 c 0,-1.5 0.2,-2.5 0.6,-3.2 0.4,-0.7 0.9,-1.1 1.4,-1.2 3.7,-0.6 6.7,-1.3 8.8,-2.1 2.2,-0.8 3.8,-1.8 4.8,-3.2 1,-1.3 1.7,-3 1.9,-5.1 0.3,-2.1 0.4,-4.7 0.4,-7.8 l 0.1,-126 0,0 z"
           id="path35"
           style="fill:#6e6b60"
           inkscape:connector-curvature="0" /><path
           d="m 182.4,261.2 0,0 -0.1,-0.1 c -7.6,-8.6 -20.6,-12.9 -36.6,-12.9 -0.7,0 -1.3,0 -2,0 l 0,0 0,0 c 2.7,6.5 4.6,14.1 5.6,22.6 2.3,19.7 -0.2,43.9 -8.2,68.7 -1.3,4.1 -2.8,8.2 -4.3,12.1 -0.2,0.6 -0.5,1.2 -0.7,1.8 -2.9,7.2 -6.2,13.9 -9.7,20.2 h 0 c 15.4,5.3 29.7,8 41.6,8 14.1,0 24.7,-3.9 29.3,-11.9 0.2,-0.3 0.4,-0.7 0.6,-1.1 l 0,0 0,0 c 10.3,-23.8 11.3,-50.7 2.8,-75.2 -4,-11.4 -10.1,-22.3 -18.3,-32.2 l 0.1,0.1 -0.1,-0.1 0,0"
           id="path37"
           style="fill:#d03e28"
           inkscape:connector-curvature="0" /><path
           d="m 20,265.9 0,0 0,0 m 83,-41.7 c -6,0 -11.9,0.5 -17.6,1.5 -3.4,0.6 -6.7,1.3 -9.9,2.2 -22.4,6.2 -41.8,19.7 -55.3,37.8 l -0.2,0.2 0,0 c -0.2,0.3 -0.6,1 -0.8,1.3 -1.6,2.8 -2.4,6.1 -2.4,9.6 0,8.2 4.1,17.9 11.2,28.1 l 0,0 0,0 0,0 0,0 c 7.6,-8.3 16.8,-16.5 27.4,-24 4.8,-3.4 10,-6.7 15.3,-9.8 5.5,-3.2 11,-6 16.5,-8.5 5.7,-2.6 11.4,-4.9 16.9,-6.8 14,-4.8 27.5,-7.3 39.5,-7.6 l 0,0 h 0 c -4.7,-11.1 -11.8,-19 -21.2,-22 -1.5,-0.5 -3.1,-0.9 -4.7,-1.1 l 0,0 0,0 0,0 0,0 c -4.8,-0.6 -9.7,-0.9 -14.7,-0.9"
           id="path39"
           style="fill:#edd26b"
           inkscape:connector-curvature="0" /><path
           d="m 28,304.9 0,0 0,0 0,0 C 13,321.4 4.3,338.6 4.3,353 c 0,0.5 0,0.9 0.1,1.4 0,0.4 0,0.7 0,1.1 0.2,2.4 0.6,4.8 1.4,7 0.2,0.6 0.4,1.2 0.7,1.8 9.2,24.1 27.1,43.9 49.9,55.4 0.5,0.2 1.7,0.7 2.6,1.1 0.3,0.1 0.6,0.2 0.9,0.3 l 0,0 c 2.7,0.9 5.5,1.3 8.4,1.3 12.7,0 26.5,-8.3 39.2,-22 h 0 c 6.8,-7.4 13.2,-16.4 19,-26.7 -4.7,-1.6 -9.6,-3.5 -14.5,-5.6 l -1.5,-0.7 c 0,0 -15.5,-7.3 -23.4,-11.8 C 74,348 62.2,339.6 52.3,331.1 42.1,322.3 33.9,313.4 28,304.9"
           id="path41"
           style="fill:#51777b"
           inkscape:connector-curvature="0" /><path
           d="m 117.7,225.2 c 1.6,0.2 3.2,0.6 4.7,1.1 9.4,3 16.5,10.8 21.2,22 l 0,0 c 0.7,0 1.3,0 2,0 16,0 29,4.3 36.6,12.9 l 0.1,0.1 0,0 0,0 c -0.2,-0.2 -0.3,-0.4 -0.5,-0.6 -0.7,-0.8 -1.3,-1.6 -2,-2.3 -8.8,-9.8 -19.5,-17.8 -31.4,-23.7 -1.8,-0.9 -3.6,-1.7 -5.4,-2.4 -8.1,-3.5 -16.6,-5.9 -25.3,-7.1"
           id="path43"
           style="fill:#be3626"
           inkscape:connector-curvature="0" /><path
           d="m 20,265.9 0,0 c -0.1,0.2 -0.3,0.5 -0.5,0.8 0.2,-0.3 0.4,-0.6 0.5,-0.8 -0.1,0.2 -0.3,0.5 -0.5,0.8 0.2,-0.3 0.4,-0.6 0.5,-0.8 -11.5,15.5 -18.8,34.3 -20.1,54.7 -0.1,2.3 -0.2,4.6 -0.2,6.9 0,4.5 0.3,8.9 0.9,13.3 1,7.5 2.7,14.8 5.2,21.7 -0.8,-2.6 -1.3,-5.3 -1.4,-8.1 0,-0.2 0,-0.4 0,-0.5 0,-0.3 0,-0.6 0,-0.9 0,-14.4 8.8,-31.6 23.7,-48.1 l 0,0 v 0 h 0 l 0,0 0,0 c -7,-10.1 -11.2,-19.9 -11.2,-28.1 0,-3.5 0.8,-6.8 2.4,-9.6 0.1,-0.4 0.5,-1 0.7,-1.3"
           id="path45"
           style="fill:#4d6335"
           inkscape:connector-curvature="0" /><path
           d="m 197.9,368.7 c -0.2,0.4 -0.4,0.8 -0.6,1.1 -4.6,8 -15.2,11.9 -29.3,11.9 -11.9,0 -26.2,-2.7 -41.6,-8 -5.8,10.3 -12.2,19.3 -19,26.7 h 0 c -12.7,13.8 -26.5,22 -39.2,22 -2.9,0 -5.7,-0.4 -8.4,-1.3 -0.2,-0.1 -0.5,-0.2 -0.9,-0.3 -1,-0.4 -2.1,-0.8 -2.6,-1.1 6.6,3.3 13.5,6 20.8,7.8 h 0 l 0.1,0 0.1,0 0.1,0 0.1,0 0,0 c 8.3,2.1 16.9,3.2 25.5,3.2 16.9,0 33.8,-4.1 49.2,-12.4 1.2,-0.6 2.3,-1.3 3.5,-1.9 5.9,-3.5 11.5,-7.6 16.8,-12.4 4.9,-4.5 9.4,-9.3 13.2,-14.4 0.3,-0.5 0.7,-0.9 1,-1.4 0.2,-0.3 0.4,-0.5 0.6,-0.8 4.2,-5.9 7.7,-12.2 10.6,-18.7 m 0,0 0,0 0,0 m 0,0 0,0 0,0 0,0"
           id="path47"
           style="fill:#592e27"
           inkscape:connector-curvature="0" /></g></g></g></svg>